<mxfile host="app.diagrams.net" modified="2024-04-23T16:10:00.199Z" agent="Mozilla/5.0 (Windows NT 10.0; Win64; x64) AppleWebKit/537.36 (KHTML, like Gecko) Chrome/124.0.0.0 Safari/537.36" etag="lYWAztxVmw1wOxFOxAxW" version="24.2.8" type="github">
  <diagram name="Page-1" id="yiD5ykfXl2DpbC-ul0TF">
    <mxGraphModel dx="1386" dy="779" grid="1" gridSize="10" guides="1" tooltips="1" connect="1" arrows="1" fold="1" page="1" pageScale="1" pageWidth="850" pageHeight="1100" math="0" shadow="0">
      <root>
        <mxCell id="0" />
        <mxCell id="1" parent="0" />
        <mxCell id="X1XuAKR4XZBpJeXrJkQW-1" value="" style="shape=mxgraph.cisco.computers_and_peripherals.laptop;html=1;pointerEvents=1;dashed=0;fillColor=#036897;strokeColor=#ffffff;strokeWidth=2;verticalLabelPosition=bottom;verticalAlign=top;align=center;outlineConnect=0;" parent="1" vertex="1">
          <mxGeometry x="90" y="130" width="90" height="61" as="geometry" />
        </mxCell>
        <mxCell id="X1XuAKR4XZBpJeXrJkQW-3" value="zip2john [options] [zipfile] &amp;gt; [output file]" style="rounded=0;whiteSpace=wrap;html=1;" parent="1" vertex="1">
          <mxGeometry x="180" y="130" width="210" height="60" as="geometry" />
        </mxCell>
        <mxCell id="X1XuAKR4XZBpJeXrJkQW-4" value="Unzipping a file from your target using John" style="rounded=0;whiteSpace=wrap;html=1;" parent="1" vertex="1">
          <mxGeometry x="340" y="10" width="260" height="70" as="geometry" />
        </mxCell>
        <mxCell id="X1XuAKR4XZBpJeXrJkQW-6" value="&lt;h1 style=&quot;margin-top: 0px;&quot;&gt;Knowning the proper syntax will help with decrypting this zip.&lt;/h1&gt;" style="text;html=1;whiteSpace=wrap;overflow=hidden;rounded=0;" parent="1" vertex="1">
          <mxGeometry x="192.5" y="200" width="185" height="150" as="geometry" />
        </mxCell>
        <mxCell id="MoNxBiwiVgQM_DwHG6jl-1" value="&lt;h1 style=&quot;margin-top: 0px;&quot;&gt;Given that the zip has been downloaded from tryhackme.com and the file name is zip_hash_file.txt&lt;/h1&gt;" style="text;html=1;whiteSpace=wrap;overflow=hidden;rounded=0;" vertex="1" parent="1">
          <mxGeometry x="425" y="320" width="335" height="120" as="geometry" />
        </mxCell>
        <mxCell id="MoNxBiwiVgQM_DwHG6jl-2" value="&lt;h1 style=&quot;margin-top: 0px;&quot;&gt;we can now proceed with our first script.&lt;/h1&gt;" style="text;html=1;whiteSpace=wrap;overflow=hidden;rounded=0;" vertex="1" parent="1">
          <mxGeometry x="260" y="460" width="180" height="120" as="geometry" />
        </mxCell>
        <mxCell id="MoNxBiwiVgQM_DwHG6jl-3" value="" style="image;html=1;image=img/lib/clip_art/computers/Server_Tower_128x128.png" vertex="1" parent="1">
          <mxGeometry x="760" y="340" width="80" height="80" as="geometry" />
        </mxCell>
        <mxCell id="MoNxBiwiVgQM_DwHG6jl-4" value="" style="sketch=0;aspect=fixed;pointerEvents=1;shadow=0;dashed=0;html=1;strokeColor=none;labelPosition=center;verticalLabelPosition=bottom;verticalAlign=top;align=center;fillColor=#00188D;shape=mxgraph.azure.script_file" vertex="1" parent="1">
          <mxGeometry x="440" y="480" width="47" height="50" as="geometry" />
        </mxCell>
        <mxCell id="MoNxBiwiVgQM_DwHG6jl-5" value="" style="shape=actor;whiteSpace=wrap;html=1;" vertex="1" parent="1">
          <mxGeometry x="50" y="130" width="40" height="60" as="geometry" />
        </mxCell>
        <mxCell id="MoNxBiwiVgQM_DwHG6jl-6" value="" style="shape=actor;whiteSpace=wrap;html=1;" vertex="1" parent="1">
          <mxGeometry x="50" y="610" width="40" height="60" as="geometry" />
        </mxCell>
        <mxCell id="MoNxBiwiVgQM_DwHG6jl-7" value="" style="shape=mxgraph.cisco.computers_and_peripherals.laptop;html=1;pointerEvents=1;dashed=0;fillColor=#036897;strokeColor=#ffffff;strokeWidth=2;verticalLabelPosition=bottom;verticalAlign=top;align=center;outlineConnect=0;" vertex="1" parent="1">
          <mxGeometry x="90" y="610" width="90" height="61" as="geometry" />
        </mxCell>
        <mxCell id="MoNxBiwiVgQM_DwHG6jl-8" value="zip2john zipfile.zip &amp;gt; zip_hashfile.txt" style="rounded=0;whiteSpace=wrap;html=1;" vertex="1" parent="1">
          <mxGeometry x="180" y="611" width="220" height="60" as="geometry" />
        </mxCell>
        <mxCell id="MoNxBiwiVgQM_DwHG6jl-11" value="the zip_hashfile.txt is the output file that we create." style="rounded=0;whiteSpace=wrap;html=1;" vertex="1" parent="1">
          <mxGeometry x="520" y="611" width="200" height="60" as="geometry" />
        </mxCell>
        <mxCell id="MoNxBiwiVgQM_DwHG6jl-12" value="&lt;h1 style=&quot;margin-top: 0px;&quot;&gt;Final step, will be running a wordlist if we find the password.&lt;/h1&gt;" style="text;html=1;whiteSpace=wrap;overflow=hidden;rounded=0;" vertex="1" parent="1">
          <mxGeometry x="230" y="720" width="490" height="120" as="geometry" />
        </mxCell>
        <mxCell id="MoNxBiwiVgQM_DwHG6jl-13" value="john --wordlist/Downloads/rockyou.txt zip_hashfile.txt" style="rounded=0;whiteSpace=wrap;html=1;fontSize=18;" vertex="1" parent="1">
          <mxGeometry x="290" y="830" width="354" height="60" as="geometry" />
        </mxCell>
        <mxCell id="MoNxBiwiVgQM_DwHG6jl-14" value="&lt;font style=&quot;font-size: 16px;&quot;&gt;DistanceU&lt;/font&gt;" style="text;html=1;align=center;verticalAlign=middle;whiteSpace=wrap;rounded=0;fontStyle=3" vertex="1" parent="1">
          <mxGeometry x="600" width="190" height="100" as="geometry" />
        </mxCell>
        <mxCell id="MoNxBiwiVgQM_DwHG6jl-17" value="" style="curved=1;endArrow=classic;html=1;rounded=0;" edge="1" parent="1">
          <mxGeometry width="50" height="50" relative="1" as="geometry">
            <mxPoint x="470" y="80" as="sourcePoint" />
            <mxPoint x="390" y="130" as="targetPoint" />
            <Array as="points">
              <mxPoint x="480" y="150" />
              <mxPoint x="430" y="100" />
            </Array>
          </mxGeometry>
        </mxCell>
      </root>
    </mxGraphModel>
  </diagram>
</mxfile>
